<svg xmlns="http://www.w3.org/2000/svg" width="960" height="680" viewBox="0 0 960 680"><defs><pattern id="grid" width="32" height="32" patternUnits="userSpaceOnUse"><path d="M32 0H0V32" fill="none" stroke="#c2ef86" stroke-opacity=".045"/></pattern></defs><rect width="960" height="680" fill="#1b2117"/><rect width="960" height="680" fill="url(#grid)"/><g font-family="Arial,sans-serif"><text x="60" y="74" fill="#a8bb98" font-size="16" letter-spacing="3">ESTIK / SYSTEM OVERVIEW</text><text x="60" y="135" fill="#eef4e8" font-size="38">Uma aplicação. Todas as camadas.</text><rect x="60" y="188" width="840" height="363" rx="16" fill="#172012" stroke="#52653f" stroke-dasharray="7 7"/><text x="85" y="225" font-size="14" letter-spacing="2" fill="#b6ca9e">DOCKER COMPOSE</text><path d="M310 319H405M555 319H650M745 364V423H480V364" fill="none" stroke="#79965b" stroke-width="2"/><g fill="#25331d" stroke="#68834e"><rect x="110" y="273" width="200" height="91" rx="9"/><rect x="405" y="273" width="150" height="91" rx="9"/><rect x="650" y="273" width="200" height="91" rx="9"/><rect x="380" y="444" width="200" height="65" rx="9"/></g><path d="M480 423V443" stroke="#79965b" stroke-width="2"/><g fill="#e2eed6" font-size="21" text-anchor="middle"><text x="210" y="312">React</text><text x="480" y="312">Nginx</text><text x="750" y="312">Spring Boot</text><text x="480" y="484">PostgreSQL</text></g><g fill="#a7bc94" font-size="13" text-anchor="middle"><text x="210" y="340">INTERFACE</text><text x="480" y="340">REVERSE PROXY</text><text x="750" y="340">API REST</text></g><circle cx="67" cy="602" r="4" fill="#c2ef86"/><text x="83" y="607" fill="#a8bb98" font-size="15">Diagrama ilustrativo · Nenhum dado do ambiente interno</text></g></svg>
